<svg xmlns="http://www.w3.org/2000/svg" xmlns:xlink="http://www.w3.org/1999/xlink" viewBox="0 0 164 164"><defs><style>.cls-1{fill:none;}.cls-2{fill:#231f20;opacity:0;}.cls-3{isolation:isolate;}.cls-4{clip-path:url(#clip-path);}.cls-5{fill:#2c3e4f;}</style><clipPath id="clip-path"><polygon class="cls-1" points="15.19 153.43 15.19 10.57 152.27 6.86 152.27 157.14 15.19 153.43"/></clipPath></defs><title>Asset 11</title><g id="Layer_2" data-name="Layer 2"><g id="Layer_1-2" data-name="Layer 1"><rect class="cls-2" width="164" height="164"/><g class="cls-3"><g class="cls-4"><path class="cls-5" d="M90.42,8.54a6.69,6.69,0,0,0-1.28.15,6.29,6.29,0,0,0-1.2.41,5.81,5.81,0,0,0-1.09.65,7,7,0,0,0-1,.9A6.84,6.84,0,0,0,85,11.72a6.72,6.72,0,0,0-.6,1.16A7.21,7.21,0,0,0,84,15.47c0,.26,0,.5,0,.74s.06.48.1.71.11.45.17.66.15.43.24.64.16.35.26.53.2.34.31.51l.37.48a6,6,0,0,0,.42.46,6.63,6.63,0,0,0,1,.86,5.6,5.6,0,0,0,1.09.61,5.51,5.51,0,0,0,1.2.35,6,6,0,0,0,1.28.1A6.7,6.7,0,0,0,91.71,22,5.79,5.79,0,0,0,94,20.9,7,7,0,0,0,95,20c.16-.17.32-.34.46-.52s.28-.36.4-.55.23-.37.34-.57a6.28,6.28,0,0,0,.27-.59c.08-.21.15-.41.21-.62s.11-.42.15-.64a6.62,6.62,0,0,0,.08-.66c0-.22,0-.45,0-.68a7.26,7.26,0,0,0-.12-1.34,6.33,6.33,0,0,0-.36-1.24,6.25,6.25,0,0,0-.61-1.14,7.37,7.37,0,0,0-.85-1,6,6,0,0,0-1-.85A5.16,5.16,0,0,0,92.91,9a5.93,5.93,0,0,0-1.2-.35,6,6,0,0,0-1.29-.08"/><path class="cls-5" d="M87.84,49.86A40.1,40.1,0,0,0,83,50.2a37.8,37.8,0,0,0-4.6.9A35.4,35.4,0,0,0,74,52.56a35.76,35.76,0,0,0-4.13,2h.78a52,52,0,0,1,10.24.89,46.45,46.45,0,0,1,9.53,2.89,48,48,0,0,1,8.8,4.91,55.79,55.79,0,0,1,8,7,57,57,0,0,1,6.74,8.41,52,52,0,0,1,4.84,9.29,53.7,53.7,0,0,1,2.91,10.14,60.34,60.34,0,0,1,1,11v.83a37.72,37.72,0,0,0,1.94-4.42,38.12,38.12,0,0,0,1.39-4.67,40.88,40.88,0,0,0,.83-4.91,45.85,45.85,0,0,0,.28-5.15,45.11,45.11,0,0,0-.73-8.24,40.27,40.27,0,0,0-2.2-7.6,39.15,39.15,0,0,0-3.65-7,43,43,0,0,0-5.1-6.31,41.32,41.32,0,0,0-6.07-5.22,36.52,36.52,0,0,0-6.65-3.69,35.49,35.49,0,0,0-7.21-2.16,39.4,39.4,0,0,0-7.76-.66"/><path class="cls-5" d="M70.69,68c-1.08,0-2.14,0-3.18.14s-2.06.21-3.07.38-2,.38-3,.63-1.93.53-2.87.86c-.43.15-.87.32-1.3.49s-.86.35-1.28.54-.85.38-1.27.59-.83.42-1.24.65l0,.06,0,.07,0,.07s0,0,0,.08h.37c.84,0,1.67,0,2.49.05s1.64.09,2.45.16,1.61.17,2.4.28,1.58.25,2.36.4a45.86,45.86,0,0,1,14.07,5.12A48.81,48.81,0,0,1,84,82.91a56.34,56.34,0,0,1,6,5.47,57.79,57.79,0,0,1,6.66,8.42,52.06,52.06,0,0,1,4.78,9.26,53.35,53.35,0,0,1,2.88,10.09,60.55,60.55,0,0,1,1,10.9v.4l.06,0,.06,0,.06,0,.06,0a38.07,38.07,0,0,0,1.81-4.26,39.39,39.39,0,0,0,1.28-4.5,40.22,40.22,0,0,0,.78-4.73,47.11,47.11,0,0,0,.26-5,45.56,45.56,0,0,0-.73-8.2,40,40,0,0,0-2.16-7.58,39.53,39.53,0,0,0-3.61-7,43,43,0,0,0-5-6.31,41.38,41.38,0,0,0-6-5.21,35.18,35.18,0,0,0-13.7-5.9,39.19,39.19,0,0,0-7.66-.7"/><path class="cls-5" d="M89,25.74q-.9,0-1.8.06c-.59,0-1.19.06-1.78.11s-1.18.09-1.76.15-1.17.13-1.74.21a57.5,57.5,0,0,0-10.11,2.22,55.17,55.17,0,0,0-9.35,3.92A58,58,0,0,0,53.85,38,67.73,67.73,0,0,0,46,45.32l-1,1.06-.93,1.07c-.31.36-.61.72-.91,1.09s-.6.72-.89,1.09-.49.62-.72.93l-.71.94-.68,1c-.23.32-.45.64-.67,1h0l.38.12.37.13.37.13L41,54c.36.13.72.25,1.08.35s.71.18,1.06.25.7.11,1,.14a9,9,0,0,0,1,0h.42l.43,0,.42-.05.41-.07a8.77,8.77,0,0,0,1.38-.36,11,11,0,0,0,1.35-.56A13.72,13.72,0,0,0,51,52.91c.44-.29.87-.62,1.31-1L54,50.55l1.38-1.14,1.09-.87.79-.63,1.35-1,1.3-1c.42-.31.83-.61,1.24-.89s.79-.56,1.18-.81c.89-.6,1.79-1.17,2.69-1.69s1.8-1,2.7-1.46,1.81-.86,2.72-1.23,1.81-.72,2.71-1,2-.62,3-.88,2-.48,3-.68,2-.37,3-.51,2-.24,3.07-.32l.74,0,.73,0c.24,0,.48,0,.73,0l.72,0a48.51,48.51,0,0,1,5.67.23,47.32,47.32,0,0,1,5.56.89,46.14,46.14,0,0,1,5.45,1.55,50,50,0,0,1,5.33,2.22,52.22,52.22,0,0,1,11,7.09,54,54,0,0,1,4.79,4.55A56.34,56.34,0,0,1,130.2,58a52.48,52.48,0,0,1,6.44,11.53,53.13,53.13,0,0,1,2.09,6.28,58.45,58.45,0,0,1,1.87,13.32,56.23,56.23,0,0,1-1.2,13.21,57.55,57.55,0,0,1-1.76,6.48,56,56,0,0,1-2.36,6,53.86,53.86,0,0,1-3,5.56,51.84,51.84,0,0,1-3.59,5.13,56.47,56.47,0,0,1-4.2,4.72,51.87,51.87,0,0,1-4.62,4.08,48.59,48.59,0,0,1-5,3.42,47.77,47.77,0,0,1-5.31,2.77,49.67,49.67,0,0,1-5.65,2.12c-1.35.41-2.71.77-4.07,1.07s-2.73.54-4.09.73-2.74.32-4.11.4-2.74.1-4.12.07c-.61,0-1.23,0-1.85-.08s-1.24-.08-1.86-.14-1.24-.13-1.86-.21l-1.86-.27A50,50,0,0,1,74,142.71a45.86,45.86,0,0,1-5.81-2.24,46.47,46.47,0,0,1-5.5-3,52.14,52.14,0,0,1-5.19-3.73,53.36,53.36,0,0,1-4.76-4.37,54.3,54.3,0,0,1-4.17-4.89A55.89,55.89,0,0,1,45,119.08a60.28,60.28,0,0,1-3-6c-.91-2.08-1.82-4.21-2.7-6.4s-1.76-4.44-2.62-6.75S35,95.32,34.12,92.9s-1.64-4.9-2.44-7.43-1.59-4.84-2.34-6.92S27.86,74.61,27.15,73s-1.38-3-2-4.21a19.24,19.24,0,0,0-1.87-2.88A16.45,16.45,0,0,0,21.39,64a13.19,13.19,0,0,0-2-1.47,10.84,10.84,0,0,0-2.07-1,10.06,10.06,0,0,0-2.17-.5l14,44.4q1.59,4.69,3.43,8.92a89.06,89.06,0,0,0,3.94,8A74.86,74.86,0,0,0,41,129.41a62.59,62.59,0,0,0,5,6.16A66.32,66.32,0,0,0,55.23,144a57.64,57.64,0,0,0,10.24,6.12,56.1,56.1,0,0,0,11.25,3.83A62.79,62.79,0,0,0,89,155.43h3.92c1.24,0,2.46-.11,3.68-.21s2.41-.25,3.6-.43,2.37-.4,3.54-.65,2.32-.54,3.47-.86,2.52-.78,3.75-1.23,2.46-.94,3.67-1.48,2.4-1.11,3.58-1.73,2.34-1.28,3.48-2,2-1.34,3-2.06,2-1.48,3-2.28,1.95-1.62,2.9-2.49,1.9-1.77,2.82-2.71,1.89-2,2.78-3,1.75-2,2.57-3.08,1.59-2.1,2.34-3.18,1.45-2.17,2.13-3.28a61.2,61.2,0,0,0,3.94-7.74,63.74,63.74,0,0,0,2.82-8.26,67.15,67.15,0,0,0,1.69-8.76,74,74,0,0,0,.56-9.27,72.11,72.11,0,0,0-1.18-13.23,63.3,63.3,0,0,0-3.55-12.21,61.65,61.65,0,0,0-5.89-11.15,68.29,68.29,0,0,0-8.21-10.07,66,66,0,0,0-8.82-7.59A58.72,58.72,0,0,0,115.07,31a56.15,56.15,0,0,0-10.26-3.57,60.33,60.33,0,0,0-11-1.58l-1.21-.05-1.21,0H90.22l-1.22,0"/></g></g></g></g></svg>